<?xml version="1.0" encoding="utf-8"?>
<!-- Generator: Adobe Illustrator 24.0.1, SVG Export Plug-In . SVG Version: 6.00 Build 0)  -->
<svg version="1.1" id="Layer_1" xmlns="http://www.w3.org/2000/svg" xmlns:xlink="http://www.w3.org/1999/xlink" x="0px" y="0px"
	 viewBox="0 0 874.21 567.19" style="enable-background:new 0 0 874.21 567.19;" xml:space="preserve">
<style type="text/css">
	.st0{fill:url(#SVGID_1_);}
	.st1{fill:url(#SVGID_2_);}
	.st2{fill:url(#SVGID_3_);}
</style>
<g>
	<radialGradient id="SVGID_1_" cx="437.1064" cy="283.5946" r="302.0947" gradientUnits="userSpaceOnUse">
		<stop  offset="5.586592e-03" style="stop-color:#3C7EA7"/>
		<stop  offset="1" style="stop-color:#035A8E"/>
	</radialGradient>
	<polygon class="st0" points="819.21,474.69 758.88,474.69 619.99,148.28 479.07,474.69 418.45,474.69 348.85,311.13 278.26,474.69 
		217.63,474.69 55,92.5 115.31,92.5 248.08,404.52 318.85,240.61 255.82,92.5 316.14,92.5 349.22,170.24 382.78,92.5 443.22,92.5 
		379.23,240.76 448.92,404.52 583.62,92.5 656.58,92.5 	"/>
	<linearGradient id="SVGID_2_" gradientUnits="userSpaceOnUse" x1="601.0028" y1="428.6425" x2="630.8827" y2="428.6425">
		<stop  offset="0" style="stop-color:#666666"/>
		<stop  offset="1" style="stop-color:#999999"/>
	</linearGradient>
	<path class="st1" d="M611.78,415.98l19.1,18.88c-4.56,4.22-9.78,6.44-16.11,6.44c-8.44,0-13.77-5.22-13.77-11.77
		C601,423.86,604.45,419.2,611.78,415.98z"/>
	<linearGradient id="SVGID_3_" gradientUnits="userSpaceOnUse" x1="532.5328" y1="373.6725" x2="705.7328" y2="373.6725">
		<stop  offset="0" style="stop-color:#666666"/>
		<stop  offset="1" style="stop-color:#999999"/>
	</linearGradient>
	<path class="st2" d="M619.75,272.65l-87.22,202.04h173.2L619.75,272.65z M640.65,444.52c-7.22,6.44-15.77,9.66-26.32,9.66
		c-17.32,0-28.65-9.33-28.65-23.76c0-10,5.66-18.55,17.1-23.66c-4.11-5-5.66-9.22-5.66-14.32c0-10.55,8.55-18.77,22.76-18.77
		c14.55,0,22.1,8.99,21.55,19.65h-15.11c0.23-4.99-2.77-7.55-6.88-7.55c-4.22,0-7.22,2.78-7.22,6.55c0,3.78,2.22,7.11,7.11,12.22
		l19.54,19.32c0.22-0.22,0.34-0.55,0.56-0.88l6.33-10.56h16.21l-7.77,13.66c-1.56,3-3.11,5.67-4.78,8.22l18.77,18.55h-19.1
		L640.65,444.52z"/>
</g>
</svg>
