<?xml version="1.0" encoding="utf-8"?>
<!-- Generator: Adobe Illustrator 24.0.1, SVG Export Plug-In . SVG Version: 6.00 Build 0)  -->
<svg version="1.1" id="Layer_1" xmlns="http://www.w3.org/2000/svg" xmlns:xlink="http://www.w3.org/1999/xlink" x="0px" y="0px"
	 viewBox="0 0 1920 1080" style="enable-background:new 0 0 1920 1080;" xml:space="preserve">
<style type="text/css">
	.st0{fill:url(#SVGID_1_);}
	.st1{fill:url(#SVGID_2_);}
	.st2{fill:url(#SVGID_3_);}
	.st3{fill:url(#SVGID_4_);}
	.st4{fill:url(#SVGID_5_);}
	.st5{fill:url(#SVGID_6_);}
	.st6{fill:url(#SVGID_7_);}
	.st7{fill:url(#SVGID_8_);}
	.st8{fill:url(#SVGID_9_);}
	.st9{fill:url(#SVGID_10_);}
	.st10{fill:url(#SVGID_11_);}
	.st11{fill:url(#SVGID_12_);}
	.st12{fill:url(#SVGID_13_);}
	.st13{fill:url(#SVGID_14_);}
	.st14{fill:url(#SVGID_15_);}
	.st15{fill:url(#SVGID_16_);}
	.st16{fill:url(#SVGID_17_);}
	.st17{fill:url(#SVGID_18_);}
	.st18{fill:url(#SVGID_19_);}
	.st19{fill:url(#SVGID_20_);}
	.st20{fill:url(#SVGID_21_);}
	.st21{fill:#FFFFFF;}
</style>
<g>
	<g>
		<radialGradient id="SVGID_1_" cx="916.9889" cy="679.5403" r="14.9502" gradientUnits="userSpaceOnUse">
			<stop  offset="5.586592e-03" style="stop-color:#3C7EA7"/>
			<stop  offset="1" style="stop-color:#035A8E"/>
		</radialGradient>
		<path class="st0" d="M903.78,695.22c0.82,0,1.43-0.11,1.83-0.34c0.4-0.23,0.79-0.65,1.19-1.26c0.24-0.43,0.39-0.78,0.44-1.05
			c0.05-0.27,0.08-0.6,0.11-0.98c0.03-0.38,0.05-1.11,0.05-2.17v-9.84V669.4c0-1.92-0.21-3.22-0.64-3.89
			c-0.34-0.61-0.71-1.03-1.12-1.26c-0.41-0.23-1.03-0.34-1.85-0.34v-0.87h15.2c3.63,0,6.41,0.73,8.33,2.2
			c1.92,1.47,2.88,3.6,2.88,6.41c0,2.96-1.08,5.25-3.25,6.87c-2.17,1.62-5.27,2.43-9.3,2.43l-3.66-0.18v8.7
			c0,2.05,0.24,3.49,0.71,4.33c0.47,0.84,1.41,1.32,2.82,1.44v0.82h-13.74V695.22z M913.99,664.86v14.15l1.83,0.09
			c5.34,0,8.01-2.43,8.01-7.3c0-2.24-0.63-3.95-1.88-5.14c-1.25-1.19-3.07-1.79-5.45-1.79H913.99z"/>
		<radialGradient id="SVGID_2_" cx="945.2872" cy="679.5403" r="15.134" gradientUnits="userSpaceOnUse">
			<stop  offset="5.586592e-03" style="stop-color:#3C7EA7"/>
			<stop  offset="1" style="stop-color:#035A8E"/>
		</radialGradient>
		<path class="st1" d="M931.66,695.22c1.4-0.12,2.38-0.66,2.93-1.6c0.24-0.43,0.4-0.94,0.48-1.53c0.08-0.59,0.11-1.47,0.11-2.63
			v-9.89V669.4v-1.6c0-0.88-0.18-1.64-0.53-2.27c-0.35-0.63-0.73-1.05-1.14-1.28c-0.41-0.23-1.03-0.34-1.85-0.34l0.09-0.87h13.69
			v0.87c-0.79,0-1.4,0.11-1.83,0.34c-0.43,0.23-0.82,0.66-1.19,1.28c-0.37,0.63-0.55,1.92-0.55,3.87v0.23v17.03
			c0,0.95,0.01,1.83,0.02,2.66c0.02,0.82,0.18,1.63,0.51,2.4c0.32,0.78,1.04,1.41,2.16,1.9c1.12,0.49,2.49,0.73,4.12,0.73
			c5.71,0,8.85-2.87,9.44-8.61l0.78,0.05l-0.55,10.26h-26.7V695.22z"/>
		<radialGradient id="SVGID_3_" cx="972.7615" cy="679.5403" r="15.134" gradientUnits="userSpaceOnUse">
			<stop  offset="5.586592e-03" style="stop-color:#3C7EA7"/>
			<stop  offset="1" style="stop-color:#035A8E"/>
		</radialGradient>
		<path class="st2" d="M959.14,695.22c1.4-0.12,2.38-0.66,2.93-1.6c0.24-0.43,0.4-0.94,0.48-1.53c0.08-0.59,0.11-1.47,0.11-2.63
			v-9.89V669.4v-1.6c0-0.88-0.18-1.64-0.53-2.27c-0.35-0.63-0.73-1.05-1.14-1.28c-0.41-0.23-1.03-0.34-1.85-0.34l0.09-0.87h13.69
			v0.87c-0.79,0-1.4,0.11-1.83,0.34c-0.43,0.23-0.82,0.66-1.19,1.28c-0.37,0.63-0.55,1.92-0.55,3.87v0.23v17.03
			c0,0.95,0.01,1.83,0.02,2.66c0.02,0.82,0.18,1.63,0.51,2.4c0.32,0.78,1.04,1.41,2.16,1.9c1.12,0.49,2.49,0.73,4.12,0.73
			c5.71,0,8.85-2.87,9.44-8.61l0.78,0.05l-0.55,10.26h-26.7V695.22z"/>
		<radialGradient id="SVGID_4_" cx="1000.5567" cy="679.6318" r="16.109" gradientUnits="userSpaceOnUse">
			<stop  offset="5.586592e-03" style="stop-color:#3C7EA7"/>
			<stop  offset="1" style="stop-color:#035A8E"/>
		</radialGradient>
		<path class="st3" d="M1014.18,662.71h0.87l0.46,11.63l-0.82,0.09c-0.37-1.22-0.71-2.21-1.03-2.98c-0.32-0.76-0.66-1.43-1.03-2.01
			c-2.17-3.42-5.17-5.13-9.02-5.13c-3.45,0-6.19,1.38-8.22,4.14c-2.03,2.76-3.05,6.48-3.05,11.15c0,2.11,0.26,4.06,0.78,5.86
			c0.79,2.93,2.14,5.19,4.03,6.78c1.89,1.59,4.23,2.38,7.01,2.38c1.19,0,2.33-0.18,3.41-0.55c1.08-0.37,2.11-0.91,3.07-1.63
			c0.96-0.72,1.69-1.56,2.18-2.54c0.24-0.46,0.47-0.98,0.69-1.56c0.21-0.58,0.44-1.34,0.69-2.29l1.37,0.37
			c-0.31,1.41-0.57,2.41-0.78,3.02c-0.21,0.61-0.56,1.3-1.05,2.06c-2.2,3.51-6.08,5.27-11.63,5.27c-5.01,0-9.01-1.49-12.02-4.46
			c-3.01-2.98-4.51-6.95-4.51-11.93c0-5.28,1.59-9.59,4.76-12.91c3.17-3.33,7.28-4.99,12.32-4.99c1.4,0,2.66,0.12,3.76,0.37
			c1.1,0.24,2.55,0.7,4.35,1.37c0.85,0.31,1.43,0.46,1.74,0.46C1013.61,664.68,1014.18,664.03,1014.18,662.71z"/>
	</g>
	<radialGradient id="SVGID_5_" cx="781.9778" cy="680.7186" r="80.0536" gradientUnits="userSpaceOnUse">
		<stop  offset="5.586592e-03" style="stop-color:#3C7EA7"/>
		<stop  offset="1" style="stop-color:#035A8E"/>
	</radialGradient>
	<rect x="668.79" y="678.47" class="st4" width="226.38" height="4.5"/>
	<radialGradient id="SVGID_6_" cx="1137.8093" cy="680.7186" r="80.0537" gradientUnits="userSpaceOnUse">
		<stop  offset="5.586592e-03" style="stop-color:#3C7EA7"/>
		<stop  offset="1" style="stop-color:#035A8E"/>
	</radialGradient>
	<rect x="1024.62" y="678.47" class="st5" width="226.38" height="4.5"/>
</g>
<g>
	<radialGradient id="SVGID_7_" cx="706.1271" cy="617.6479" r="31.5365" gradientUnits="userSpaceOnUse">
		<stop  offset="5.586592e-03" style="stop-color:#3C7EA7"/>
		<stop  offset="1" style="stop-color:#035A8E"/>
	</radialGradient>
	<path class="st6" d="M669.59,592.07h13.33l7.36,37.23l9.11-37.23h13.7l8.74,37.23l7.43-37.23h13.41l-13.33,51.15h-15.08
		l-8.16-33.66l-8.45,33.66h-15.08L669.59,592.07z"/>
	<radialGradient id="SVGID_8_" cx="765.9075" cy="623.1125" r="20.4011" gradientUnits="userSpaceOnUse">
		<stop  offset="5.586592e-03" style="stop-color:#3C7EA7"/>
		<stop  offset="1" style="stop-color:#035A8E"/>
	</radialGradient>
	<path class="st7" d="M786.16,643.22H773.7v-5.54c-2.48,3.5-6.85,5.97-12.31,5.97c-9.4,0-15.74-6.48-15.74-17.34v-23.75h12.39v22.08
		c0,5.54,3.13,8.6,7.8,8.6c4.81,0,7.87-3.06,7.87-8.6v-22.08h12.46V643.22z"/>
	<radialGradient id="SVGID_9_" cx="830.6057" cy="617.5387" r="27.1293" gradientUnits="userSpaceOnUse">
		<stop  offset="5.586592e-03" style="stop-color:#3C7EA7"/>
		<stop  offset="1" style="stop-color:#035A8E"/>
	</radialGradient>
	<path class="st8" d="M829.29,604.46c0.07-2.77-1.6-4.08-3.79-4.08c-2.33,0-4.08,1.46-4.08,3.64c0,2.11,1.38,4.23,4.08,7.07
		l12.46,12.17c0.29-0.66,0.66-1.31,0.95-2.04l2.7-4.59h12.46l-3.5,6.34c-1.38,3.06-2.91,5.76-4.52,8.16l12.31,12.09h-14.5
		l-4.74-4.59c-4.66,3.57-10.2,5.39-16.9,5.39c-11.88,0-19.38-6.19-19.38-15.66c0-6.27,3.35-11.73,10.42-15.08
		c-2.62-3.13-3.57-5.9-3.57-9.18c0-7.21,5.76-13.04,15.96-13.04c10.42,0,15.59,6.34,15.37,13.41H829.29z M831.48,631.2l-11.37-11
		c-3.5,1.82-5.25,4.37-5.25,7.29c0,3.57,2.99,6.48,7.94,6.48C826.16,633.97,829,633.02,831.48,631.2z"/>
	<radialGradient id="SVGID_10_" cx="894.8661" cy="617.6479" r="25.6465" gradientUnits="userSpaceOnUse">
		<stop  offset="5.586592e-03" style="stop-color:#3C7EA7"/>
		<stop  offset="1" style="stop-color:#035A8E"/>
	</radialGradient>
	<path class="st9" d="M904.34,634.19h-19.09l-3.06,9.03h-13.04l18.51-51.15h14.43l18.51,51.15H907.4L904.34,634.19z M894.79,605.84
		l-6.27,18.72h12.6L894.79,605.84z"/>
	<radialGradient id="SVGID_11_" cx="938.6912" cy="622.8939" r="19.3242" gradientUnits="userSpaceOnUse">
		<stop  offset="5.586592e-03" style="stop-color:#3C7EA7"/>
		<stop  offset="1" style="stop-color:#035A8E"/>
	</radialGradient>
	<path class="st10" d="M939.82,643.8c-10.86,0-18.14-6.05-18.72-13.92h12.31c0.29,2.84,2.84,4.74,6.27,4.74
		c3.21,0,4.88-1.46,4.88-3.28c0-6.56-22.15-1.82-22.15-16.76c0-6.92,5.9-12.6,16.54-12.6c10.49,0,16.32,5.83,17.12,13.84h-11.51
		c-0.36-2.77-2.48-4.59-5.97-4.59c-2.91,0-4.52,1.17-4.52,3.13c0,6.48,22,1.89,22.22,17.05C956.29,638.49,950.02,643.8,939.82,643.8
		z"/>
	<radialGradient id="SVGID_12_" cx="976.4324" cy="622.8939" r="19.3242" gradientUnits="userSpaceOnUse">
		<stop  offset="5.586592e-03" style="stop-color:#3C7EA7"/>
		<stop  offset="1" style="stop-color:#035A8E"/>
	</radialGradient>
	<path class="st11" d="M977.56,643.8c-10.86,0-18.14-6.05-18.72-13.92h12.31c0.29,2.84,2.84,4.74,6.27,4.74
		c3.21,0,4.88-1.46,4.88-3.28c0-6.56-22.15-1.82-22.15-16.76c0-6.92,5.9-12.6,16.54-12.6c10.49,0,16.32,5.83,17.12,13.84H982.3
		c-0.36-2.77-2.48-4.59-5.97-4.59c-2.91,0-4.52,1.17-4.52,3.13c0,6.48,22,1.89,22.22,17.05C994.03,638.49,987.76,643.8,977.56,643.8
		z"/>
	<radialGradient id="SVGID_13_" cx="1017.4154" cy="622.8939" r="21.0202" gradientUnits="userSpaceOnUse">
		<stop  offset="5.586592e-03" style="stop-color:#3C7EA7"/>
		<stop  offset="1" style="stop-color:#035A8E"/>
	</radialGradient>
	<path class="st12" d="M1017.27,643.8c-11.95,0-20.98-8.01-20.98-20.91s9.25-20.91,21.13-20.91c11.95,0,21.13,8.01,21.13,20.91
		S1029.22,643.8,1017.27,643.8z M1017.27,633.02c4.44,0,8.6-3.28,8.6-10.13c0-6.92-4.08-10.13-8.45-10.13
		c-4.52,0-8.45,3.21-8.45,10.13C1008.96,629.74,1012.75,633.02,1017.27,633.02z"/>
	<radialGradient id="SVGID_14_" cx="1059.7466" cy="622.8939" r="20.4426" gradientUnits="userSpaceOnUse">
		<stop  offset="5.586592e-03" style="stop-color:#3C7EA7"/>
		<stop  offset="1" style="stop-color:#035A8E"/>
	</radialGradient>
	<path class="st13" d="M1060.18,601.98c10.2,0,17.41,5.61,19.53,15.3h-13.26c-1.02-2.84-3.06-4.66-6.48-4.66
		c-4.44,0-7.5,3.5-7.5,10.27c0,6.78,3.06,10.27,7.5,10.27c3.42,0,5.39-1.68,6.48-4.66h13.26c-2.11,9.4-9.33,15.3-19.53,15.3
		c-11.95,0-20.4-8.01-20.4-20.91C1039.78,610.07,1048.24,601.98,1060.18,601.98z"/>
	<radialGradient id="SVGID_15_" cx="1089.6552" cy="614.0413" r="21.2858" gradientUnits="userSpaceOnUse">
		<stop  offset="5.586592e-03" style="stop-color:#3C7EA7"/>
		<stop  offset="1" style="stop-color:#035A8E"/>
	</radialGradient>
	<path class="st14" d="M1082.26,591.64c0-3.79,2.99-6.78,7.43-6.78c4.37,0,7.36,2.99,7.36,6.78c0,3.72-2.99,6.7-7.36,6.7
		C1085.25,598.34,1082.26,595.35,1082.26,591.64z M1083.43,602.57h12.46v40.66h-12.46V602.57z"/>
	<radialGradient id="SVGID_16_" cx="1120.9845" cy="622.8939" r="21.1856" gradientUnits="userSpaceOnUse">
		<stop  offset="5.586592e-03" style="stop-color:#3C7EA7"/>
		<stop  offset="1" style="stop-color:#035A8E"/>
	</radialGradient>
	<path class="st15" d="M1117.45,601.98c6.05,0,10.35,2.77,12.53,6.34v-5.76h12.46v40.66h-12.46v-5.76
		c-2.26,3.57-6.56,6.34-12.6,6.34c-9.91,0-17.85-8.16-17.85-20.98C1099.53,610,1107.47,601.98,1117.45,601.98z M1121.09,612.84
		c-4.66,0-8.89,3.5-8.89,9.98c0,6.48,4.23,10.13,8.89,10.13c4.74,0,8.89-3.57,8.89-10.05
		C1129.98,616.41,1125.83,612.84,1121.09,612.84z"/>
	<radialGradient id="SVGID_17_" cx="1158.3967" cy="617.9394" r="20.0453" gradientUnits="userSpaceOnUse">
		<stop  offset="5.586592e-03" style="stop-color:#3C7EA7"/>
		<stop  offset="1" style="stop-color:#035A8E"/>
	</radialGradient>
	<path class="st16" d="M1150.53,612.91h-4.95v-10.35h4.95v-9.91h12.46v9.91h8.16v10.35h-8.16v16.32c0,2.4,1.02,3.42,3.79,3.42h4.44
		v10.56h-6.34c-8.45,0-14.35-3.57-14.35-14.13V612.91z"/>
	<radialGradient id="SVGID_18_" cx="1193.1503" cy="622.8939" r="20.6573" gradientUnits="userSpaceOnUse">
		<stop  offset="5.586592e-03" style="stop-color:#3C7EA7"/>
		<stop  offset="1" style="stop-color:#035A8E"/>
	</radialGradient>
	<path class="st17" d="M1193.3,643.8c-11.95,0-20.55-8.01-20.55-20.91s8.45-20.91,20.55-20.91c11.88,0,20.26,7.87,20.26,20.25
		c0,1.17-0.07,2.4-0.22,3.64h-28.2c0.44,5.32,3.72,7.8,7.72,7.8c3.5,0,5.46-1.75,6.48-3.93h13.26
		C1210.64,637.68,1203.42,643.8,1193.3,643.8z M1185.21,618.96h15.59c0-4.44-3.5-6.99-7.65-6.99
		C1189.07,611.96,1185.94,614.44,1185.21,618.96z"/>
	<radialGradient id="SVGID_19_" cx="1232.6034" cy="622.8939" r="19.3244" gradientUnits="userSpaceOnUse">
		<stop  offset="5.586592e-03" style="stop-color:#3C7EA7"/>
		<stop  offset="1" style="stop-color:#035A8E"/>
	</radialGradient>
	<path class="st18" d="M1233.73,643.8c-10.86,0-18.14-6.05-18.73-13.92h12.31c0.29,2.84,2.84,4.74,6.27,4.74
		c3.21,0,4.88-1.46,4.88-3.28c0-6.56-22.15-1.82-22.15-16.76c0-6.92,5.9-12.6,16.54-12.6c10.49,0,16.32,5.83,17.12,13.84h-11.51
		c-0.36-2.77-2.48-4.59-5.97-4.59c-2.91,0-4.52,1.17-4.52,3.13c0,6.48,22,1.89,22.22,17.05
		C1250.2,638.49,1243.93,643.8,1233.73,643.8z"/>
</g>
<g>
	<radialGradient id="SVGID_20_" cx="959.8936" cy="463.5621" r="126.2717" gradientUnits="userSpaceOnUse">
		<stop  offset="5.586592e-03" style="stop-color:#3C7EA7"/>
		<stop  offset="1" style="stop-color:#035A8E"/>
	</radialGradient>
	<polygon class="st19" points="1119.61,543.44 1094.39,543.44 1036.34,407 977.44,543.44 952.1,543.44 923,475.07 893.5,543.44 
		868.16,543.44 800.18,383.69 825.39,383.69 880.88,514.11 910.46,445.6 884.12,383.69 909.33,383.69 923.16,416.18 937.19,383.69 
		962.45,383.69 935.7,445.66 964.83,514.11 1021.13,383.69 1051.63,383.69 	"/>
	<linearGradient id="SVGID_21_" gradientUnits="userSpaceOnUse" x1="999.7813" y1="501.2124" x2="1072.1743" y2="501.2124">
		<stop  offset="0" style="stop-color:#666666"/>
		<stop  offset="1" style="stop-color:#999999"/>
	</linearGradient>
	<polygon class="st20" points="999.78,543.44 1036.24,458.99 1072.17,543.44 	"/>
	<g>
		<path class="st21" d="M1038.99,509.43c0.09-2.09-1.16-3.16-2.88-3.16c-1.76,0-3.02,1.16-3.02,2.74c0,1.58,0.93,2.97,2.97,5.11
			l8.17,8.08c0.09-0.09,0.14-0.23,0.23-0.37l2.65-4.41h6.78l-3.25,5.71c-0.65,1.25-1.3,2.37-2,3.44l7.84,7.75h-7.98l-3.53-3.48
			c-3.02,2.69-6.59,4.04-11,4.04c-7.24,0-11.98-3.9-11.98-9.93c0-4.18,2.37-7.75,7.15-9.89c-1.72-2.09-2.37-3.85-2.37-5.99
			c0-4.41,3.57-7.84,9.52-7.84c6.08,0,9.24,3.76,9.01,8.22H1038.99z M1040.89,526.79l-7.98-7.89c-3.06,1.35-4.5,3.3-4.5,5.66
			c0,2.74,2.23,4.92,5.76,4.92C1036.8,529.48,1038.99,528.55,1040.89,526.79z"/>
	</g>
</g>
</svg>
